<?xml version="1.0" standalone="no"?>
<!DOCTYPE svg PUBLIC "-//W3C//DTD SVG 20010904//EN"
 "http://www.w3.org/TR/2001/REC-SVG-20010904/DTD/svg10.dtd">
<svg version="1.0" xmlns="http://www.w3.org/2000/svg"
 width="500.000000pt" height="298.000000pt" viewBox="0 0 500.000000 298.000000"
 preserveAspectRatio="xMidYMid meet">

<g transform="translate(0.000000,298.000000) scale(0.100000,-0.100000)"
fill="#000000" stroke="none">
<path d="M1175 2884 c-9 -10 -13 -24 -9 -36 4 -14 -1 -24 -15 -34 -12 -9 -21
-21 -21 -29 0 -23 31 -47 54 -41 15 4 26 -1 34 -14 25 -40 80 -13 68 33 -4 16
0 26 14 35 11 7 20 21 20 32 0 21 -34 45 -51 34 -6 -3 -19 3 -30 15 -24 25
-42 27 -64 5z m96 -46 c34 4 38 -13 7 -29 -31 -16 -31 -15 -19 -37 8 -15 7
-23 -4 -32 -12 -10 -17 -7 -26 13 -10 22 -17 25 -40 20 -22 -4 -29 -2 -29 10
0 9 9 19 21 22 16 5 19 12 15 31 -10 39 4 51 27 23 14 -17 27 -23 48 -21z"/>
<path d="M3115 2868 c-11 -7 -32 -11 -48 -9 -30 3 -44 -18 -31 -46 4 -10 8
-34 8 -53 1 -37 21 -49 54 -34 9 4 30 8 46 8 38 1 56 28 34 53 -12 13 -14 23
-8 33 13 21 12 26 -6 44 -18 19 -23 19 -49 4z m35 -31 c0 -7 -5 -18 -10 -23
-8 -8 -6 -15 5 -24 14 -12 21 -40 9 -40 -3 0 -15 5 -26 11 -17 9 -24 8 -34 -6
-18 -24 -37 -10 -23 16 8 16 7 25 -7 40 -22 24 -10 38 18 20 17 -11 23 -10 36
3 20 19 32 21 32 3z"/>
<path d="M3563 2803 c-13 -8 -23 -21 -23 -29 0 -17 58 -57 74 -51 13 5 25 64
18 86 -5 16 -43 13 -69 -6z m44 -50 c-3 -2 -15 1 -28 7 l-22 13 24 13 c22 11
24 11 27 -8 2 -11 1 -22 -1 -25z"/>
<path d="M1758 2726 c-26 -55 -20 -76 24 -76 54 0 78 10 78 33 0 26 -46 87
-66 87 -8 0 -24 -20 -36 -44z m73 -27 c7 -14 3 -18 -27 -21 -19 -2 -36 -2 -39
0 -2 2 4 20 13 39 15 32 17 33 30 16 7 -10 18 -25 23 -34z"/>
<path d="M2722 2703 l-20 -28 -26 24 c-29 27 -51 23 -68 -14 -14 -30 -20 -31
-43 -5 -26 29 -52 25 -71 -11 l-16 -31 -22 21 c-31 29 -51 26 -66 -9 -14 -34
-14 -34 -40 -20 -29 16 -34 -7 -6 -25 29 -20 41 -15 62 27 l16 30 22 -21 c31
-29 53 -26 72 10 l16 31 22 -21 c30 -28 54 -27 68 4 14 30 22 31 48 5 28 -28
47 -25 65 11 16 30 17 30 36 13 25 -23 37 -10 14 16 -24 27 -40 25 -63 -7z"/>
<path d="M3790 2615 c0 -8 2 -15 4 -15 2 0 11 -3 20 -6 23 -9 20 13 -4 26 -16
9 -20 8 -20 -5z"/>
<path d="M907 2614 c-4 -4 -7 -18 -7 -31 0 -28 23 -27 28 1 4 20 -11 40 -21
30z"/>
<path d="M810 2562 c0 -14 39 -46 47 -39 3 4 -2 16 -12 27 -19 21 -35 26 -35
12z"/>
<path d="M1366 2554 c-43 -8 -140 -30 -215 -48 -75 -19 -151 -38 -169 -41 -47
-10 -66 -43 -60 -106 4 -42 12 -57 38 -82 45 -42 76 -115 106 -248 43 -191 77
-261 171 -350 105 -101 212 -139 383 -140 176 0 291 50 425 185 89 89 155 194
200 316 31 81 79 140 115 140 35 0 75 -53 115 -152 95 -240 247 -398 452 -469
73 -25 239 -27 326 -4 214 56 339 203 392 460 28 136 63 220 111 266 31 30 34
38 34 89 0 31 -6 63 -12 71 -14 17 -308 92 -447 115 -112 18 -360 18 -481 -1
-52 -8 -149 -31 -215 -51 -116 -36 -125 -37 -275 -38 -151 0 -159 1 -280 37
-69 21 -168 44 -220 52 -121 19 -388 18 -494 -1z m594 -96 c111 -29 175 -78
201 -155 21 -61 17 -198 -8 -265 -35 -94 -91 -178 -177 -263 -127 -127 -240
-173 -401 -162 -243 16 -398 173 -421 428 -12 133 26 275 92 343 31 33 113 73
176 86 66 14 472 5 538 -12z m1404 -8 c127 -49 184 -147 193 -330 8 -159 -30
-279 -119 -376 -134 -145 -396 -178 -578 -71 -76 45 -189 160 -238 242 -65
111 -85 183 -80 290 5 107 28 161 85 200 88 60 185 74 463 71 197 -2 220 -5
274 -26z"/>
<path d="M3860 2558 c0 -19 26 -42 34 -30 3 5 -3 17 -14 27 -17 15 -20 16 -20
3z"/>
<path d="M3912 2474 c1 -9 9 -19 16 -22 9 -3 13 2 10 14 -1 9 -9 19 -16 22 -9
3 -13 -2 -10 -14z"/>
<path d="M770 2465 c0 -12 7 -15 25 -13 14 2 26 8 26 13 0 6 -12 11 -26 13
-18 2 -25 -1 -25 -13z"/>
<path d="M3940 2388 c0 -16 4 -28 9 -28 18 0 20 17 6 36 -14 18 -14 18 -15 -8z"/>
<path d="M3958 2012 c-9 -10 -9 -18 -1 -31 7 -11 7 -23 2 -33 -11 -20 16 -52
34 -41 7 4 28 7 47 8 35 0 35 0 35 45 1 25 -1 50 -3 57 -5 17 -99 13 -114 -5z
m69 -14 c8 21 25 13 18 -8 -4 -12 -1 -28 6 -36 16 -19 4 -30 -16 -14 -12 10
-18 10 -30 0 -20 -16 -32 -5 -16 14 8 10 9 16 1 21 -5 3 -10 13 -10 21 0 12 4
12 21 2 17 -10 23 -10 26 0z"/>
<path d="M922 1978 c-19 -19 -14 -41 16 -64 l27 -22 -22 -24 c-31 -33 -29 -46
11 -65 l34 -16 -16 -34 c-16 -33 -16 -36 3 -49 10 -8 29 -14 41 -14 20 0 23
-5 21 -42 l-2 -43 43 2 c38 2 42 0 42 -23 0 -13 5 -24 11 -24 6 0 9 14 7 33
-3 31 -5 32 -44 30 l-41 -1 1 40 c1 39 -1 41 -37 52 -36 10 -37 12 -23 31 25
32 19 54 -19 72 l-34 16 24 29 c27 32 25 49 -11 68 -27 15 -31 28 -9 36 8 4
15 10 15 15 0 13 -24 11 -38 -3z"/>
<path d="M2210 1639 c-41 -52 -33 -70 35 -82 69 -12 82 3 58 69 -25 65 -48 69
-93 13z m68 -12 c7 -18 12 -38 12 -43 0 -12 -68 -5 -76 7 -5 9 35 67 46 68 4
1 11 -14 18 -32z"/>
<path d="M2570 1651 c0 -13 29 -35 37 -28 7 8 -15 37 -28 37 -5 0 -9 -4 -9 -9z"/>
<path d="M3643 1628 c-25 -5 -47 -17 -53 -29 -9 -16 -4 -27 37 -70 59 -62 75
-59 101 20 30 88 15 102 -85 79z m74 -35 c-9 -44 -26 -83 -36 -83 -10 0 -71
70 -71 81 0 6 63 22 104 28 5 0 6 -11 3 -26z"/>
<path d="M2640 1591 c0 -13 29 -35 37 -28 7 8 -15 37 -28 37 -5 0 -9 -4 -9 -9z"/>
<path d="M2710 1540 c0 -14 38 -32 45 -21 3 6 -3 15 -14 20 -24 14 -31 14 -31
1z"/>
<path d="M2792 1488 c3 -7 15 -15 28 -16 21 -3 22 -2 11 12 -16 19 -44 21 -39
4z"/>
<path d="M1410 1370 c-6 -11 -16 -17 -25 -14 -36 14 -61 -46 -28 -65 10 -5 18
-20 18 -33 0 -18 6 -24 29 -26 19 -2 32 2 38 12 5 8 15 13 22 10 16 -6 46 21
46 41 0 8 -9 19 -20 25 -11 6 -18 15 -15 20 10 16 -14 50 -35 50 -11 0 -24 -9
-30 -20z m40 -29 c0 -16 6 -31 15 -35 23 -9 18 -26 -9 -26 -13 0 -26 -7 -30
-15 -8 -22 -26 -18 -26 6 0 11 -10 29 -22 40 l-23 18 32 1 c23 0 33 6 38 20 9
30 25 24 25 -9z"/>
<path d="M1820 1380 c-21 -13 6 -100 31 -100 15 0 67 63 62 76 -6 15 -77 34
-93 24z m55 -26 c15 -6 14 -8 -1 -25 -19 -21 -34 -16 -34 12 0 20 8 23 35 13z"/>
<path d="M3227 1368 c-9 -5 -17 -16 -17 -24 0 -8 -5 -23 -12 -33 -15 -24 -4
-51 21 -51 11 0 23 -4 26 -10 9 -14 55 -12 57 3 0 6 2 17 2 23 1 6 7 19 15 28
19 22 7 46 -24 46 -14 0 -25 4 -25 9 0 14 -25 20 -43 9z m29 -33 c4 -10 13
-13 25 -10 22 7 26 -10 5 -18 -9 -4 -13 -14 -9 -29 4 -22 4 -22 -11 -5 -10 13
-21 17 -35 12 -24 -7 -29 10 -5 19 10 4 14 14 11 26 -6 23 11 27 19 5z"/>
<path d="M3120 915 l0 -245 45 0 c25 0 45 4 45 9 0 5 18 3 39 -5 65 -22 141
10 167 71 45 109 -24 223 -129 213 -23 -3 -50 -8 -59 -12 -17 -8 -18 1 -18
103 l0 111 -45 0 -45 0 0 -245z m200 -55 c40 -40 14 -110 -42 -110 -41 0 -68
25 -68 63 0 61 67 90 110 47z"/>
<path d="M2970 1093 c-25 -17 -24 -60 1 -76 23 -14 67 -1 74 23 14 45 -36 80
-75 53z"/>
<path d="M660 885 l0 -215 50 0 50 0 0 85 0 84 68 3 67 3 3 43 3 42 -70 0 -71
0 0 45 0 45 80 0 80 0 0 40 0 40 -130 0 -130 0 0 -215z"/>
<path d="M2680 885 l0 -215 120 0 120 0 0 40 0 39 -72 3 -73 3 -3 173 -2 172
-45 0 -45 0 0 -215z"/>
<path d="M960 815 l0 -145 45 0 45 0 0 79 c0 96 20 131 76 131 33 0 34 1 34
40 0 37 -2 40 -29 40 -15 0 -40 -9 -55 -21 l-26 -20 0 20 c0 18 -6 21 -45 21
l-45 0 0 -145z"/>
<path d="M1233 940 c-42 -25 -63 -68 -63 -125 0 -56 19 -96 60 -125 40 -29
109 -29 149 -1 25 18 30 19 41 6 14 -17 69 -34 88 -27 21 7 15 70 -8 82 -18
10 -20 21 -20 110 l0 100 -44 0 c-24 0 -46 -5 -48 -11 -3 -9 -9 -9 -25 0 -33
17 -94 13 -130 -9z m137 -80 c24 -24 26 -67 3 -92 -20 -22 -70 -23 -95 -1 -40
36 -8 113 47 113 14 0 34 -9 45 -20z"/>
<path d="M1560 815 l0 -145 45 0 45 0 0 88 c0 99 11 126 51 120 23 -3 24 -5
27 -105 l3 -103 49 0 49 0 3 96 c2 79 6 99 21 108 12 8 22 8 35 0 14 -9 18
-29 20 -108 l3 -96 44 0 45 0 0 114 c0 109 -1 116 -26 145 -21 26 -33 31 -69
31 -28 0 -51 -7 -68 -21 l-27 -20 -22 20 c-26 25 -79 27 -113 5 -23 -15 -25
-15 -25 0 0 12 -10 16 -45 16 l-45 0 0 -145z"/>
<path d="M2119 937 c-110 -73 -81 -236 49 -265 78 -18 147 9 178 70 l15 28
-41 0 c-26 0 -51 -8 -70 -22 -24 -18 -35 -20 -57 -12 -15 5 -33 21 -40 34
l-12 25 109 3 110 3 0 27 c0 42 -32 93 -70 114 -50 26 -128 24 -171 -5z m129
-59 c22 -22 13 -28 -43 -28 -30 0 -55 4 -55 8 0 29 74 44 98 20z"/>
<path d="M2437 940 c-34 -27 -44 -73 -23 -105 9 -14 37 -35 63 -47 25 -13 47
-27 47 -33 1 -15 -43 -18 -60 -5 -11 10 -21 10 -44 0 -31 -13 -35 -18 -22 -35
42 -58 160 -65 197 -12 17 25 20 70 5 98 -6 10 -33 30 -61 44 -55 28 -57 51
-4 42 25 -4 38 -1 52 15 17 19 17 20 -6 39 -32 26 -110 26 -144 -1z"/>
<path d="M2950 815 l0 -145 45 0 45 0 0 145 0 145 -45 0 -45 0 0 -145z"/>
<path d="M3490 815 l0 -145 45 0 45 0 0 83 c0 74 3 86 23 105 13 12 35 22 50
22 25 0 27 3 27 40 0 37 -2 40 -28 40 -16 0 -38 -9 -50 -20 l-22 -21 0 21 c0
17 -6 20 -45 20 l-45 0 0 -145z"/>
<path d="M3763 940 c-48 -29 -67 -65 -67 -126 0 -116 111 -183 208 -126 30 18
36 19 47 6 13 -16 68 -33 87 -26 6 2 12 19 12 37 0 25 -5 35 -20 40 -18 6 -20
15 -20 111 l0 104 -44 0 c-24 0 -46 -5 -48 -11 -3 -9 -9 -9 -25 0 -33 17 -94
13 -130 -9z m137 -80 c41 -41 13 -110 -44 -110 -39 0 -68 28 -68 65 0 58 71
86 112 45z"/>
<path d="M4090 815 l0 -145 45 0 45 0 0 83 c0 74 3 86 23 105 13 12 35 22 49
22 17 0 28 6 30 18 2 9 27 -40 56 -110 l52 -126 -35 -81 -34 -81 48 0 49 0 87
218 c48 119 90 223 92 230 4 10 -6 12 -43 10 l-49 -3 -34 -94 -34 -94 -36 94
-36 94 -70 3 c-60 2 -74 0 -93 -18 l-22 -21 0 21 c0 17 -6 20 -45 20 l-45 0 0
-145z"/>
<path d="M1205 397 c14 -24 25 -56 25 -70 0 -17 5 -27 15 -27 10 0 15 10 15
33 0 17 9 46 20 62 23 35 25 45 7 45 -7 0 -20 -15 -29 -32 l-15 -33 -17 33
c-9 17 -23 32 -32 32 -12 0 -9 -9 11 -43z"/>
<path d="M1357 422 c-23 -25 -22 -85 1 -105 45 -41 112 -8 112 55 0 57 -76 91
-113 50z m71 -14 c13 -13 16 -47 6 -72 -10 -26 -53 -20 -64 9 -19 51 24 97 58
63z"/>
<path d="M1520 383 c0 -67 11 -83 55 -83 44 0 55 16 55 83 0 79 -24 74 -28 -6
-3 -53 -5 -57 -27 -57 -22 0 -24 4 -27 57 -4 80 -28 85 -28 6z"/>
<path d="M1694 373 c32 -95 53 -97 85 -8 13 36 21 69 18 72 -11 10 -26 -8 -37
-45 -21 -68 -22 -68 -40 -12 -10 32 -24 56 -33 58 -14 3 -13 -6 7 -65z"/>
<path d="M1850 370 l0 -70 45 0 c25 0 45 5 45 10 0 6 -16 10 -35 10 -28 0 -35
4 -35 20 0 16 7 20 35 20 19 0 35 5 35 10 0 6 -16 10 -36 10 -28 0 -35 3 -32
18 2 11 14 18 36 20 48 5 39 22 -13 22 l-45 0 0 -70z"/>
<path d="M2050 369 l0 -70 46 3 c52 3 73 23 59 54 -4 11 -7 27 -6 37 4 29 -19
47 -60 47 l-39 0 0 -71z m68 28 c2 -12 -3 -17 -17 -17 -15 0 -21 6 -21 21 0
25 33 22 38 -4z m7 -57 c0 -8 -10 -16 -22 -18 -18 -3 -23 2 -23 18 0 16 5 21
23 18 12 -2 22 -10 22 -18z"/>
<path d="M2210 370 l0 -70 50 0 c28 0 50 5 50 10 0 6 -16 10 -35 10 -28 0 -35
4 -35 20 0 16 7 20 30 20 17 0 30 5 30 10 0 6 -13 10 -30 10 -23 0 -30 4 -30
20 0 16 7 20 36 20 21 0 33 4 29 10 -3 6 -26 10 -51 10 l-44 0 0 -70z"/>
<path d="M2360 370 l0 -70 45 0 c25 0 45 5 45 10 0 6 -16 10 -35 10 -28 0 -35
4 -35 20 0 16 7 20 35 20 19 0 35 5 35 10 0 6 -16 10 -36 10 -28 0 -35 3 -32
18 2 11 14 18 36 20 48 5 39 22 -13 22 l-45 0 0 -70z"/>
<path d="M2500 370 c0 -54 3 -70 14 -70 11 0 16 14 18 48 l3 47 25 -47 c15
-31 31 -48 42 -48 16 0 18 9 18 70 0 81 -18 95 -22 18 l-3 -53 -28 53 c-19 36
-33 52 -47 52 -18 0 -20 -7 -20 -70z"/>
<path d="M2740 370 c0 -56 3 -70 15 -70 10 0 15 10 15 30 0 27 3 30 30 30 17
0 30 5 30 10 0 6 -13 10 -30 10 -23 0 -30 4 -30 20 0 16 7 20 35 20 19 0 35 5
35 10 0 6 -22 10 -50 10 l-50 0 0 -70z"/>
<path d="M2880 370 c0 -56 3 -70 15 -70 10 0 15 10 15 30 0 21 5 30 16 30 9 0
21 -13 27 -30 6 -16 17 -30 24 -30 15 0 15 -3 4 37 -6 20 -6 35 0 38 16 10 10
44 -10 55 -11 5 -36 10 -55 10 l-36 0 0 -70z m64 44 c25 -10 19 -34 -9 -34
-18 0 -25 5 -25 20 0 21 8 24 34 14z"/>
<path d="M3065 423 c-33 -83 -43 -123 -30 -123 7 0 17 9 20 20 4 13 15 20 32
20 16 0 27 -7 30 -20 3 -11 12 -20 19 -20 18 0 17 3 -9 75 -23 61 -48 81 -62
48z m35 -50 c0 -7 -7 -13 -16 -13 -11 0 -14 5 -10 16 3 9 6 21 6 27 0 16 20
-14 20 -30z"/>
<path d="M3200 370 c0 -78 19 -99 21 -22 l1 47 16 -47 c10 -31 21 -48 32 -48
10 0 21 16 30 48 l14 47 4 -47 c5 -74 22 -57 22 22 0 63 -2 70 -20 70 -14 0
-22 -11 -29 -37 -6 -21 -11 -44 -11 -50 0 -31 -17 -9 -29 37 -10 38 -17 50
-32 50 -17 0 -19 -8 -19 -70z"/>
<path d="M3400 370 l0 -70 50 0 c28 0 50 5 50 10 0 6 -16 10 -35 10 -28 0 -35
4 -35 20 0 16 7 20 30 20 17 0 30 5 30 10 0 6 -13 10 -30 10 -23 0 -30 4 -30
20 0 16 7 20 36 20 21 0 33 4 29 10 -3 6 -26 10 -51 10 l-44 0 0 -70z"/>
<path d="M3540 370 l0 -70 38 0 c55 0 82 23 82 70 0 47 -27 70 -82 70 l-38 0
0 -70z m71 40 c37 -20 19 -90 -23 -90 -15 0 -18 9 -18 50 0 52 7 58 41 40z"/>
</g>
</svg>
